<svg version="1.1" id="Layer_1" xmlns="http://www.w3.org/2000/svg" xmlns:xlink="http://www.w3.org/1999/xlink" x="0px" y="0px"
	 width="100%" viewBox="0 0 1024 1024" enable-background="new 0 0 1024 1024" xml:space="preserve">
<path fill="#DADBDC" opacity="1.000000" stroke="none" 
	d="
M733.228027,487.070221 
	C733.745117,475.473358 730.216370,466.417938 720.837769,460.781128 
	C714.219177,468.098022 707.807861,475.000336 701.694702,482.157318 
	C700.843811,483.153503 701.073364,485.500580 701.460815,487.058655 
	C704.627014,499.792725 708.657532,512.362793 710.933838,525.246216 
	C712.120728,531.963806 713.190430,538.498108 715.595154,544.933167 
	C721.588379,560.970947 723.803833,577.458801 720.421204,594.492065 
	C718.848816,602.410095 715.645142,603.440247 708.762695,599.097351 
	C705.717041,597.175537 701.390198,597.284180 697.867859,596.519470 
	C697.867859,608.328064 697.892456,619.071167 697.839233,629.813904 
	C697.831909,631.293640 697.521729,632.789368 697.208984,634.247070 
	C695.937256,640.175293 692.242371,641.361084 687.503845,637.634399 
	C682.072388,633.362854 676.464905,629.315125 669.658447,624.214233 
	C669.658447,628.660889 669.520752,631.357727 669.682373,634.036499 
	C670.373840,645.495178 668.358887,656.550476 664.858948,667.391235 
	C664.504700,668.488403 663.916138,669.521057 663.353516,670.537842 
	C660.564270,675.578491 657.946228,675.726929 654.511658,670.997437 
	C653.379578,669.438538 652.414185,667.758545 650.911987,665.415649 
	C648.931580,673.616394 647.298401,681.017090 645.349121,688.333557 
	C639.074890,711.883179 626.303406,731.462524 608.240479,747.590088 
	C588.502991,765.213074 565.970154,778.854004 543.331543,792.301086 
	C535.028503,797.232971 526.635498,802.013367 518.331116,806.942871 
	C514.382446,809.286804 510.884766,809.262634 506.795502,806.722107 
	C483.598785,792.311462 459.949982,778.609131 437.027954,763.780151 
	C402.515747,741.452942 382.540924,709.356689 375.889191,668.875977 
	C375.735199,667.938843 375.491425,667.016479 375.065735,665.057312 
	C373.470978,667.826782 372.441406,669.806519 371.234833,671.671631 
	C368.388763,676.071106 365.333466,676.107239 362.451233,671.656128 
	C361.385986,670.011047 360.637085,668.087036 360.094421,666.189941 
	C356.583893,653.917969 354.639221,641.483398 356.561859,628.688904 
	C356.679810,627.903931 356.577148,627.085754 356.577148,624.572815 
	C351.020813,628.416321 346.361084,631.605713 341.739105,634.848938 
	C338.724762,636.963989 336.566467,641.298096 332.048950,639.730835 
	C327.195618,638.046997 327.863770,633.179138 327.744019,629.417725 
	C327.417084,619.150146 327.631531,608.865295 327.631531,597.651978 
	C324.067017,598.230774 319.533142,598.644104 315.171387,599.741516 
	C305.719879,602.119507 303.398712,600.170715 302.878601,590.283691 
	C301.976166,573.129333 305.768585,557.002869 311.460480,540.948853 
	C314.415283,532.614685 314.931213,523.445007 317.012360,514.763916 
	C319.295746,505.239075 322.168762,495.856720 324.635925,486.373505 
	C325.001282,484.969238 325.161957,482.807922 324.375275,481.919403 
	C318.227264,474.975006 311.824524,468.256104 305.082092,461.018555 
	C298.266846,464.622711 294.300690,470.944244 292.914368,479.023529 
	C292.409668,481.964539 292.219177,484.992798 292.216614,487.981567 
	C292.189636,519.143494 292.277283,550.305542 292.221039,581.467407 
	C292.205719,589.957336 293.405518,598.056091 300.822815,603.271545 
	C304.177124,605.630127 308.540131,606.624939 312.535675,607.970886 
	C314.544403,608.647461 317.351959,608.041077 318.727753,609.241699 
	C320.589203,610.866028 322.416626,613.654785 322.450989,615.970764 
	C322.496948,619.070862 320.202484,621.105408 316.427612,621.190796 
	C300.356140,621.554077 288.613342,614.104675 281.924835,599.530457 
	C280.816833,597.116150 278.436279,594.600159 276.029510,593.579041 
	C260.556213,587.014282 253.330811,575.066162 252.993210,558.782776 
	C252.661865,542.801147 252.517654,526.796204 252.995468,510.822601 
	C253.492859,494.194305 261.302216,482.086395 277.045746,475.500031 
	C278.587830,474.854858 280.103424,472.893433 280.608551,471.232025 
	C283.282806,462.435822 287.998596,455.175323 295.909363,450.372101 
	C299.790314,448.015656 297.580139,445.489899 296.546509,443.151093 
	C286.905762,421.336365 281.111511,398.502045 278.717621,374.836395 
	C275.548737,343.509369 278.784058,312.680420 286.699371,282.276917 
	C287.830017,277.934021 288.505371,273.459717 289.835114,269.184204 
	C292.524658,260.536377 298.754700,257.018524 306.796906,261.067047 
	C316.839966,266.122803 326.546539,272.083862 335.690887,278.640778 
	C357.686523,294.412720 377.497894,312.765747 396.071594,332.413147 
	C399.197845,335.720093 401.415863,336.099274 405.238007,333.798889 
	C442.742950,311.226013 483.514893,301.413971 527.075317,304.343842 
	C555.253540,306.239105 582.187866,313.507050 607.207581,327.051270 
	C611.891968,329.587128 616.710388,331.886688 621.307068,334.569305 
	C624.249023,336.286255 626.103088,335.915314 628.524536,333.372986 
	C649.832458,311.001709 673.148804,290.871521 698.031982,272.604553 
	C704.010681,268.215546 710.746765,264.701202 717.493103,261.553040 
	C726.878967,257.173157 733.737610,260.496033 736.508423,270.304871 
	C750.452332,319.666504 752.725220,369.006256 737.562378,418.479828 
	C734.548401,428.313965 730.709290,437.895203 727.491272,446.918335 
	C732.211121,452.190826 737.925537,456.595734 740.914612,462.403320 
	C744.844421,470.038757 749.111633,475.877747 756.896423,480.494049 
	C767.180115,486.592133 772.557800,497.178009 772.747742,509.537689 
	C773.013611,526.834656 773.646973,544.171143 772.804749,561.426392 
	C772.063782,576.609253 764.161194,587.816223 749.367004,593.085083 
	C745.968750,594.295349 744.419189,596.310669 743.253967,599.478210 
	C738.303711,612.934448 728.011536,619.578674 714.257385,621.478088 
	C710.424622,622.007263 706.522278,621.713989 705.486267,617.044922 
	C704.517334,612.678040 707.731201,610.890686 711.188843,609.516541 
	C714.739624,608.105408 718.380005,606.845032 721.758179,605.089783 
	C729.021301,601.315857 732.986511,595.042114 733.096924,586.968872 
	C733.338074,569.331421 733.106445,551.687927 733.113525,534.046875 
	C733.119690,518.550842 733.187988,503.054810 733.228027,487.070221 
M674.463623,307.938843 
	C657.573486,324.940948 640.417053,341.690125 623.918091,359.063782 
	C616.842346,366.514679 611.069153,375.214813 604.821411,383.436432 
	C597.948608,392.480560 597.374939,392.566589 586.618958,389.084930 
	C576.368103,385.766785 566.017029,382.740875 555.629150,379.880096 
	C553.868896,379.395325 551.312439,379.806030 549.792175,380.812500 
	C544.865173,384.074615 539.508850,384.573456 533.966736,383.974884 
	C532.551453,383.821991 530.511597,382.624725 530.157349,381.475983 
	C529.830627,380.416412 531.054443,378.360168 532.174744,377.483002 
	C534.381836,375.755066 537.046692,374.627289 539.422302,373.096283 
	C546.948425,368.245941 546.687561,359.935516 538.918884,355.599335 
	C528.731201,349.912933 511.552399,357.395813 508.803528,368.717194 
	C506.303802,379.012421 511.648682,391.030426 521.576172,397.473419 
	C522.965393,398.375061 524.477966,399.173157 525.643311,400.315247 
	C527.939270,402.565460 527.298096,404.668060 524.489929,405.690491 
	C522.884033,406.275177 520.720276,406.518799 519.188965,405.927917 
	C507.538330,401.431976 496.834076,395.348877 489.514191,384.871063 
	C484.409698,377.564484 484.699249,377.361176 475.478638,378.846527 
	C473.511566,379.163422 471.487366,379.288849 469.589294,379.843872 
	C457.947815,383.247955 446.265350,386.538208 434.746155,390.321899 
	C429.996002,391.882172 426.784332,390.912445 423.962891,387.024750 
	C419.658081,381.093018 415.402405,375.109650 410.793579,369.417206 
	C386.250610,339.103760 358.429688,312.138336 327.270782,288.681244 
	C319.365021,282.729645 310.930267,277.480804 302.043427,271.436188 
	C301.084290,275.722473 300.362305,278.754211 299.730103,281.804535 
	C293.431061,312.196777 288.389587,342.641663 291.665985,373.938721 
	C294.387939,399.939484 301.325073,424.543488 313.670532,447.576965 
	C315.950897,451.831573 318.828705,455.765930 321.994232,460.732086 
	C322.709778,452.875519 323.176910,446.419739 323.907532,439.993927 
	C325.561127,425.449554 331.318878,412.428314 339.342041,400.386383 
	C340.506195,398.639130 343.191406,397.905304 345.172760,396.702515 
	C345.108856,398.853973 345.468384,401.123566 344.907013,403.136292 
	C342.587006,411.454834 339.657928,419.613342 337.570923,427.984772 
	C334.626282,439.796570 334.494110,451.857819 335.271667,465.033020 
	C336.438782,463.629089 336.976654,463.104675 337.371887,462.488708 
	C348.104797,445.760193 359.669739,429.712921 374.411469,416.168304 
	C375.282135,415.368317 375.438568,412.758850 374.828857,411.541626 
	C369.538025,400.978729 364.795258,390.019501 358.363770,380.174866 
	C344.435913,358.855621 329.532410,338.175415 315.262848,317.074982 
	C313.921814,315.091949 314.249084,311.980652 313.801758,309.393188 
	C315.951233,310.226349 318.161011,310.936218 320.224243,311.945648 
	C321.225861,312.435760 322.023895,313.423981 322.793732,314.293243 
	C332.504395,325.258148 342.748657,335.807373 351.763763,347.318634 
	C367.230194,367.067535 380.035339,388.460785 388.272888,412.366272 
	C389.669678,416.419678 389.241302,419.297058 386.207001,422.628967 
	C376.349579,433.453339 366.494507,444.327393 357.392944,455.781830 
	C342.446564,474.592072 332.247650,495.724731 328.649506,519.739319 
	C327.298462,528.756348 326.620453,537.877563 322.495148,546.337402 
	C320.252502,550.936462 318.636169,555.958313 317.528473,560.964539 
	C316.053009,567.633057 315.347748,574.471924 314.311676,581.237610 
	C314.834290,581.388550 315.356903,581.539490 315.879547,581.690491 
	C318.835815,577.973389 321.735779,574.209839 324.758362,570.547485 
	C336.618011,556.177612 351.702759,550.572327 370.106812,553.814087 
	C381.597382,555.838074 392.067719,560.412842 402.030853,566.265137 
	C425.478882,580.038391 443.610321,598.902710 452.740051,624.659790 
	C458.095581,639.768982 460.732574,655.875122 464.150269,671.628662 
	C467.639496,687.712219 486.376068,698.424744 501.751068,692.704102 
	C505.835938,691.184204 506.426910,688.748657 503.231049,685.668335 
	C500.355469,682.896606 496.920502,680.650452 494.319061,677.661682 
	C490.086945,672.799316 485.524231,667.950134 482.540375,662.331055 
	C475.602203,649.265381 481.371490,636.285583 495.345215,631.752747 
	C508.054352,627.630066 520.639954,628.382568 533.035156,632.928345 
	C540.890686,635.809204 545.848755,642.340149 545.076721,650.530579 
	C544.533752,656.290894 543.196960,662.740601 539.976868,667.303101 
	C535.278015,673.960876 528.498047,679.131592 522.774048,685.098206 
	C521.502380,686.423767 519.988892,688.645325 520.317810,690.048401 
	C520.622620,691.348389 523.151306,692.757996 524.859192,692.999817 
	C541.000793,695.284851 553.999573,691.424500 559.469421,675.973999 
	C563.050110,665.859497 564.868774,655.093445 567.130310,644.544922 
	C573.816528,613.359253 589.161072,587.770752 616.392029,570.550415 
	C625.991028,564.480164 636.661072,559.618835 647.445557,556.007568 
	C670.821411,548.179932 688.850708,554.354431 703.937256,573.841064 
	C705.594299,575.981506 707.227295,578.140625 709.753662,581.444946 
	C709.918884,578.887512 710.034485,577.962219 710.030090,577.037537 
	C709.969788,564.304871 706.371948,552.438293 701.337280,540.884766 
	C700.162781,538.189453 698.917786,535.222290 698.904663,532.374695 
	C698.839600,518.229980 694.575073,505.003113 689.424438,492.241852 
	C679.358887,467.303436 662.732361,446.652679 644.230042,427.495697 
	C634.453186,417.372955 633.773804,417.336517 639.535767,404.677460 
	C655.228455,370.200867 676.985840,339.884491 704.017212,313.379852 
	C706.157349,311.281372 708.370239,307.105774 711.997620,309.740143 
	C712.885559,310.385010 711.340576,315.842743 709.697998,318.262085 
	C701.559265,330.249664 692.913269,341.891083 684.634094,353.785400 
	C672.349609,371.434082 660.745483,389.488281 651.785767,409.135559 
	C649.979370,413.096649 650.741028,415.388824 653.561646,418.654419 
	C663.230042,429.848175 672.414368,441.464935 681.624023,453.046967 
	C684.469910,456.625854 686.807739,460.608765 689.378174,464.406677 
	C690.631409,462.515686 690.692505,460.954956 690.771484,459.395142 
	C691.714661,440.778534 688.245422,422.963867 681.316711,405.711182 
	C680.185974,402.895569 680.089539,399.664581 679.515015,396.625580 
	C680.082153,396.391266 680.649353,396.156952 681.216492,395.922638 
	C682.609985,396.954712 684.332092,397.734497 685.347229,399.056976 
	C698.901306,416.714691 702.838684,437.363342 703.099182,459.496277 
	C733.480835,432.816711 744.905334,325.967468 723.395203,272.420074 
	C705.406250,281.650665 690.336121,294.751129 674.463623,307.938843 
M572.308533,683.794739 
	C566.594421,689.593140 560.920837,695.432129 555.152466,701.176025 
	C551.044678,705.266479 546.488342,708.951355 542.712830,713.319153 
	C538.086243,718.671509 532.712341,722.471008 525.903748,724.354126 
	C512.370789,728.097351 499.189178,727.675171 488.012909,718.500061 
	C479.199341,711.264709 471.487457,702.693909 463.216888,694.788757 
	C456.137604,688.022339 449.380707,680.828003 441.733551,674.766113 
	C427.932526,663.825989 413.687469,653.431152 399.383759,643.148193 
	C394.476440,639.620239 387.369568,643.948914 387.381775,650.167480 
	C387.449249,684.553833 397.875458,714.502563 424.276642,737.970642 
	C450.528839,761.306213 481.537628,777.289978 511.297485,795.220337 
	C512.282715,795.813965 514.305237,795.750000 515.290955,795.122925 
	C539.993774,779.405701 565.354126,764.588623 589.084717,747.509460 
	C621.183472,724.407654 637.584229,692.159363 638.116516,652.281311 
	C638.229675,643.803345 632.350342,640.048767 624.885681,643.857117 
	C621.928467,645.365906 618.907776,646.906250 616.308777,648.935303 
	C601.746338,660.304321 587.303894,671.827087 572.308533,683.794739 
M441.232361,330.591248 
	C430.575073,335.495544 419.917755,340.399872 408.870270,345.483765 
	C416.678558,356.674194 423.644592,366.787689 430.836823,376.737640 
	C431.465942,377.608032 433.705231,377.926666 434.985992,377.620514 
	C450.002808,374.030884 465.032349,370.469635 479.938446,366.454987 
	C485.376038,364.990479 488.483124,366.863464 491.041077,371.277435 
	C491.981384,372.900085 493.444885,374.219482 494.830353,375.868347 
	C495.705444,374.685120 496.001556,374.446960 496.079437,374.151337 
	C496.418427,372.865479 496.817566,371.577606 496.973450,370.264191 
	C498.719971,355.546387 507.282471,347.079590 521.252075,343.289459 
	C539.752014,338.270264 557.323059,348.490295 557.526367,365.727478 
	C557.541199,366.981293 559.650879,368.855499 561.143433,369.338287 
	C568.731567,371.793030 576.423889,373.932312 584.105469,376.090393 
	C593.989563,378.867340 593.995605,378.827057 599.537659,369.937103 
	C600.593933,368.242859 601.636047,366.533875 602.796082,364.911346 
	C607.016357,359.008667 611.283752,353.139771 615.797119,346.893219 
	C613.966614,345.769470 612.479736,344.763733 610.911072,343.907928 
	C594.515747,334.963318 577.542358,327.537537 559.488831,322.409546 
	C535.455444,315.583038 511.112518,314.865387 486.806396,318.873291 
	C471.638733,321.374298 456.885742,326.390503 441.232361,330.591248 
M336.125763,575.623657 
	C333.575104,578.711670 331.024475,581.799683 327.681793,585.846619 
	C330.930298,585.846619 332.570557,585.927856 334.200562,585.832825 
	C342.088531,585.373047 343.134338,587.008118 341.718292,594.665894 
	C340.083313,603.507812 339.261749,612.500061 338.086975,621.427063 
	C338.591125,621.579102 339.095245,621.731140 339.599396,621.883179 
	C340.811890,621.101257 341.988129,620.254883 343.243073,619.548340 
	C349.181519,616.205139 354.996765,612.596558 361.136414,609.671082 
	C366.706482,607.016968 369.833435,609.454407 369.527527,615.597778 
	C369.478241,616.587219 369.223175,617.567078 369.055511,618.549988 
	C367.294312,628.874878 366.400085,639.224121 367.691467,648.618652 
	C372.193207,644.599670 377.013672,640.354004 381.770203,636.037903 
	C392.088715,626.674988 396.363007,626.003113 408.181335,633.717529 
	C417.077667,639.524658 425.456360,646.130615 434.003784,652.464172 
	C438.885986,656.081909 443.644684,659.866333 449.102356,664.071472 
	C448.999115,662.086243 449.068573,661.106262 448.880371,660.178467 
	C447.658386,654.155334 446.597748,648.088318 445.085480,642.136963 
	C434.901093,602.058105 408.591583,578.026367 369.643616,566.682922 
	C356.999207,563.000183 346.005676,565.953308 336.125763,575.623657 
M648.539734,568.929993 
	C609.123718,580.214722 578.814209,620.106873 576.981201,663.728577 
	C578.421875,662.573608 579.507263,661.653625 580.642822,660.800598 
	C591.682068,652.507935 602.225342,643.418945 613.892761,636.130005 
	C631.659851,625.030151 631.074646,624.180298 648.770813,641.079468 
	C651.817749,643.989136 654.400940,647.384338 657.761047,651.193054 
	C657.999939,649.308960 658.260498,648.363281 658.216431,647.432068 
	C657.706238,636.648315 657.121277,625.868042 656.617126,615.084045 
	C656.321777,608.769165 658.624817,606.854614 664.381409,609.436218 
	C670.430908,612.149170 676.108521,615.691223 681.950867,618.866943 
	C683.419250,619.665100 684.896179,620.447815 686.369141,621.237610 
	C686.900635,620.932983 687.432129,620.628296 687.963562,620.323669 
	C686.543884,610.994629 685.306274,601.632812 683.632446,592.349609 
	C682.706787,587.215271 683.970581,585.127441 689.204407,585.001099 
	C691.438660,584.947144 693.675415,584.992065 696.203796,584.992065 
	C690.693604,573.257935 678.006592,564.762390 666.966431,565.596497 
	C661.034729,566.044556 655.185181,567.579651 648.539734,568.929993 
M746.430908,500.557495 
	C746.430908,527.210510 746.430908,553.863525 746.430908,581.291382 
	C754.412537,576.969055 759.479858,571.224121 759.717041,563.270203 
	C760.271851,544.659302 760.162964,526.016235 759.799988,507.396362 
	C759.645508,499.473236 753.227783,491.740692 746.435303,490.145630 
	C746.435303,493.372223 746.435303,496.478241 746.430908,500.557495 
M275.806091,579.234741 
	C280.211243,581.924133 279.133453,578.193726 279.134796,576.239319 
	C279.153076,549.080322 279.107758,521.921326 279.054901,494.762360 
	C279.051941,493.236572 278.848755,491.711212 278.715515,489.863251 
	C270.462677,494.320435 266.285065,499.750214 266.088593,507.900696 
	C265.663116,525.546936 265.431946,543.213989 265.836975,560.856079 
	C265.998596,567.895691 268.683624,574.557861 275.806091,579.234741 
M497.390411,664.020935 
	C500.636139,667.086609 503.504456,670.795837 507.257294,672.996765 
	C509.857513,674.521729 514.850220,675.495972 516.729309,674.053223 
	C522.138489,669.900085 527.417786,664.978699 531.074951,659.284485 
	C536.452087,650.912170 532.858948,643.383240 522.998169,642.334839 
	C515.232910,641.509216 507.135162,642.091614 499.387360,643.322083 
	C492.202301,644.463257 490.272614,649.212341 493.047852,655.948608 
	C494.115204,658.539368 495.664795,660.931519 497.390411,664.020935 
M495.963135,705.270630 
	C494.580475,705.365234 493.197815,705.459839 491.130707,705.601257 
	C497.948853,714.585754 506.737000,715.643616 516.172485,714.798706 
	C523.489624,714.143433 530.205811,712.251831 534.025146,706.795593 
	C527.639832,705.052917 521.410217,703.202148 515.093811,701.721436 
	C513.221436,701.282593 511.048676,701.632507 509.111908,702.063171 
	C504.976105,702.982788 500.904633,704.191467 495.963135,705.270630 
z"/>
<path fill="#DADADC" opacity="1.0" stroke="none" 
	d="
M403.656036,213.864197 
	C422.393127,208.772003 440.982452,205.001358 460.031952,204.387268 
	C488.128662,203.481506 516.253601,202.028534 544.336670,202.518082 
	C573.182190,203.020920 601.723511,207.374512 629.141235,216.893921 
	C635.113037,218.967331 640.988220,222.433029 645.771118,226.571274 
	C654.192505,233.857513 653.789978,245.139359 644.546143,251.393051 
	C637.660461,256.051392 629.686951,259.637268 621.697266,262.026276 
	C599.095764,268.784393 575.631226,271.255707 552.218201,271.816345 
	C521.460083,272.552856 490.632935,272.161957 459.885101,270.972626 
	C438.648163,270.151154 417.454529,267.287384 397.201782,260.107788 
	C392.540466,258.455353 387.937897,256.286011 383.786377,253.612213 
	C370.951904,245.346146 370.657532,231.546585 383.470978,223.229202 
	C389.525513,219.299149 396.636475,216.996674 403.656036,213.864197 
M480.451630,216.729935 
	C468.027405,217.835434 455.464844,218.139404 443.214600,220.253235 
	C428.535919,222.786102 414.090424,226.731461 399.623779,230.381607 
	C396.662323,231.128830 393.872803,233.023499 391.330963,234.845367 
	C388.395844,236.949127 388.197327,239.747986 391.549408,241.598709 
	C395.304382,243.671829 399.233002,245.633835 403.320435,246.867874 
	C427.208466,254.080017 451.782928,257.443634 476.617493,258.503052
    C521.938477,260.436493 567.232544,260.899170 611.719238,249.838135 
    C618.938843,248.043091 626.065002,245.540588 632.875793,242.548828 
    C637.467712,240.531754 637.357544,237.020981 633.177368,234.209671 
    C630.710327,232.550522 628.068542,230.750519 625.251404,230.078552 
    C608.791748,226.152420 592.426819,221.069778 575.710999,219.140915 
    C544.434265,215.531830 512.925781,214.426056 480.451630,216.729935
z"/>
<path fill="#D7D8DA" opacity="1.000000" stroke="none" 
	d="
M588.984558,500.975372 
	C602.311340,496.536743 615.555725,494.799896 629.174133,496.484070 
	C629.338867,496.504425 629.506592,496.499298 629.672607,496.510712 
	C633.298950,496.759949 637.482727,497.443634 637.550903,501.524719 
	C637.575684,503.004822 632.739685,505.501068 629.885864,505.917328 
	C621.680725,507.114136 613.203918,506.723877 605.107056,508.332428 
	C585.471436,512.233398 571.820496,524.119812 563.106445,541.970825 
	C561.955261,544.329041 560.571960,546.720642 558.759888,548.571838 
	C556.565308,550.813782 554.081177,550.082397 553.726685,546.997314 
	C553.377258,543.956848 553.683533,540.652893 554.518860,537.695251 
	C559.598999,519.707642 571.758179,508.186432 588.984558,500.975372 
z"/>
<path fill="#D7D8D9" opacity="1.000000" stroke="none" 
	d="
M467.157349,548.894775 
	C464.369873,544.555054 461.681549,540.540588 459.401855,536.306213 
	C450.143829,519.109741 435.486511,509.946503 416.460693,507.433655 
	C410.876678,506.696167 405.189362,506.740051 399.549133,506.430267 
	C398.884979,506.393799 398.210205,506.448608 397.555695,506.354492 
	C393.631805,505.790161 388.253296,505.776855 388.398682,500.762177 
	C388.530579,496.213928 393.868164,496.909607 397.336395,496.515228 
	C416.069580,494.384949 433.977142,496.653259 449.789948,507.787018 
	C462.314301,516.605408 470.271759,528.572266 472.338104,543.966736 
	C472.753876,547.064087 472.837555,550.996826 467.157349,548.894775 
z"/>
<path fill="#D4D5D7" opacity="1.000000" stroke="none" 
	d="
M567.924072,481.799438 
	C568.774414,481.560150 569.249268,481.416046 569.722290,481.266144 
	C573.609070,480.034454 578.027161,478.622559 580.083557,483.412262 
	C582.010864,487.901306 577.800537,490.101196 574.812439,492.365082 
	C573.775940,493.150360 572.542786,493.753021 571.310974,494.188812 
	C568.028625,495.350037 564.211121,497.020081 562.080444,492.955658 
	C560.182983,489.335907 561.979370,485.911743 564.968384,483.326904 
	C565.696960,482.696838 566.681091,482.362305 567.924072,481.799438 
z"/>
<path fill="#D6D7D9" opacity="1.000000" stroke="none" 
	d="
M456.615662,496.481140 
	C453.186523,494.777802 449.747955,493.659119 447.170868,491.508270 
	C443.125122,488.131653 444.405212,483.689331 449.435028,482.176147 
	C454.734467,480.581818 463.124481,485.754944 464.133606,491.239014 
	C464.843811,495.098633 462.341583,496.978119 456.615662,496.481140 
z"/>
</svg>