<svg width="30" height="28" viewBox="0 0 60 28" fill="none" xmlns="http://www.w3.org/2000/svg">
<path d="M50.2464 0.965694C49.4474 0.960728 48.6553 1.11238 47.9152 1.41199C47.1752 1.7116 46.5017 2.15329 45.9334 2.71183C45.365 3.27037 44.9129 3.9348 44.6029 4.66718C44.2928 5.39956 44.1308 6.18552 44.1263 6.98016V12.9978H41.6776V25.0267H47.7977C49.4111 25.0359 50.9622 24.4075 52.1098 23.2796C53.2575 22.1518 53.9078 20.6168 53.9179 19.0122V12.9978H56.3634V0.965694H50.2464Z" fill="#00BEDD"/>
<path d="M35.5575 0.965676C33.946 0.958989 32.3978 1.5886 31.2526 2.71627C30.1075 3.84394 29.4592 5.37747 29.45 6.98014V12.9977H26.9887V0.965676H20.8717C19.2583 0.95648 17.7073 1.58489 16.5596 2.71273C15.4119 3.84058 14.7616 5.37554 14.7516 6.98014V12.9977H12.3029V0.965676H6.18593C4.57252 0.95648 3.02148 1.58489 1.87382 2.71273C0.726158 3.84058 0.0758219 5.37554 0.0657959 6.98014L0.0657959 12.9977H7.40869V25.0267H13.5288C14.3283 25.0325 15.1212 24.8814 15.862 24.5822C16.6027 24.283 17.2769 23.8414 17.8459 23.2828C18.415 22.7242 18.8677 22.0594 19.1781 21.3266C19.4886 20.5939 19.6507 19.8074 19.6553 19.0122V12.9977H22.104V25.0267H28.2146C29.828 25.0359 31.3791 24.4075 32.5267 23.2796C33.6744 22.1518 34.3247 20.6168 34.3347 19.0122V12.9977H41.6776V0.965676H35.5575Z" fill="white"/>
</svg>
